# xmcd
#
# Track frame offsets: 
#        150
#        14927
#        28954
#        41556
#        55208
#        67510
#        78612
#        91589
#
# Disc length: 1412 seconds
#
# Revision: 0
# Processed by: cddbd v1.5.2PL0 Copyright (c) Steve Scherf et al.
# Submitted via: ExactAudioCopy v1.0b1
#
DISCID=60058208
DTITLE=Helmut Hofer - Country Voice
DYEAR=1999
DGENRE=Country
TTITLE0=North to Alaska
TTITLE1=Country Roads
TTITLE2=Ring of Fire
TTITLE3=The  Auctioneer
TTITLE4=Hello Mary Lou
TTITLE5=Help me make it through the night
TTITLE6=Ich bin einer so wie Du
TTITLE7=Detroit City
EXTD=
EXTT0=
EXTT1=
EXTT2=
EXTT3=
EXTT4=
EXTT5=
EXTT6=
EXTT7=
PLAYORDER=
